<svg width="223" height="222" viewBox="0 0 223 222" fill="none" xmlns="http://www.w3.org/2000/svg">
<path d="M175.732 149.111H187.073V110.991H175.732V149.111Z" fill="white" fill-opacity="0.5"/>
<path d="M118.313 110.985H106.973V149.106H118.313V110.985Z" fill="white" fill-opacity="0.5"/>
<path d="M135.907 149.329V156.462H158.138V149.329H165.797V162.843H128.248V149.329H135.907Z" fill="white" fill-opacity="0.5"/>
<path d="M71.0514 55.6383V204.458H223V55.6383H71.0514ZM78.1981 62.7998H215.853V197.626H78.1981V62.7998Z" fill="white" fill-opacity="0.5"/>
<path d="M144.192 57.5499H150.821V0.514255L144.192 3.17265V57.5499Z" fill="white" fill-opacity="0.5"/>
<path d="M-22.6078 187.655H29.0811L43.3064 59.3166L44.5981 47.0445C45.5028 38.4619 39.6818 30.4922 31.3629 28.9596C30.4183 28.7869 29.4794 28.6977 28.5519 28.6977C28.4325 28.6977 28.3073 28.6977 28.1878 28.7088C21.2971 28.8705 15.2485 33.6745 13.5699 40.7691L-22.6078 187.655ZM21.2458 49.5246C21.2458 46.0469 24.125 43.2269 27.6757 43.2269C31.2263 43.2269 34.1055 46.0469 34.1055 49.5246C34.1055 53.0022 31.2263 55.8222 27.6757 55.8222C24.125 55.8222 21.2458 53.0022 21.2458 49.5246Z" fill="white" fill-opacity="0.5"/>
<path d="M30.9589 191.986L55.0166 230H-50L-25.9422 191.986H30.9589Z" fill="white" fill-opacity="0.5"/>
<path d="M158.127 -2.43394L48.0747 56.1622L48.9851 47.4904C49.9012 38.7962 45.315 30.6371 37.9975 26.7471L157.712 -3.97771C157.774 -3.99443 157.831 -4 157.882 -4C158.235 -4 158.406 -3.6879 158.463 -3.53743C158.611 -3.1696 158.571 -2.66802 158.127 -2.43394Z" fill="white" fill-opacity="0.5"/>
</svg>
