<svg width="265" height="223" viewBox="0 0 265 223" fill="none" xmlns="http://www.w3.org/2000/svg">
<path d="M104.547 96.3139H92.1948V136.35H104.547V96.3139Z" fill="white" fill-opacity="0.5"/>
<path d="M172.805 96.3139H160.453V136.35H172.805V96.3139Z" fill="white" fill-opacity="0.5"/>
<path d="M142.983 142.753H122.017V135.468H113.319V150.379H151.687V135.468H142.983V142.753Z" fill="white" fill-opacity="0.5"/>
<path d="M209.343 193.921V154.436H200.272V184.781H170.032V193.915H163.452V184.781H135.674V193.915H129.094V184.781H101.548V193.915H94.968V184.781H64.7278V154.436H55.6569V193.921H94.9624V207.112L79.605 222.581V233.49C76.5325 234.788 74.3749 237.85 74.3749 241.412C74.3749 246.147 78.1987 250 82.8979 250C87.5972 250 91.421 246.147 91.421 241.412C91.421 237.85 89.2577 234.794 86.1851 233.49V225.329L101.542 209.861V193.926H129.083V212.604C126.01 213.902 123.853 216.964 123.853 220.526C123.853 225.261 127.676 229.114 132.376 229.114C137.075 229.114 140.899 225.261 140.899 220.526C140.899 216.964 138.736 213.908 135.663 212.604V193.926H163.441V209.861L178.798 225.329V233.49C175.725 234.788 173.562 237.85 173.562 241.412C173.562 246.147 177.386 250 182.085 250C186.784 250 190.608 246.147 190.608 241.412C190.608 237.85 188.445 234.794 185.378 233.49V222.581L170.021 207.112V193.921H209.343ZM82.9036 243.37C81.8361 243.37 80.9606 242.494 80.9606 241.412C80.9606 240.331 81.8304 239.455 82.9036 239.455C83.9767 239.455 84.8465 240.331 84.8465 241.412C84.8465 242.494 83.9767 243.37 82.9036 243.37ZM132.381 222.478C131.314 222.478 130.438 221.602 130.438 220.52C130.438 219.439 131.308 218.563 132.381 218.563C133.455 218.563 134.324 219.439 134.324 220.52C134.324 221.602 133.455 222.478 132.381 222.478ZM182.096 239.455C183.164 239.455 184.039 240.331 184.039 241.412C184.039 242.494 183.17 243.37 182.096 243.37C181.023 243.37 180.153 242.494 180.153 241.412C180.153 240.331 181.023 239.455 182.096 239.455Z" fill="white" fill-opacity="0.5"/>
<path d="M55.6569 147.806H64.7278V119.818H55.6569V147.806H39.8421L24.4847 163.28H16.3853C15.0975 160.184 12.0588 158.01 8.52306 158.01C3.8238 158.01 0 161.863 0 166.598C0 171.333 3.8238 175.186 8.52306 175.186C12.0588 175.186 15.0919 173.006 16.3853 169.916H27.2128L42.5701 154.442H55.6569V147.806ZM8.52871 168.55C7.45556 168.55 6.58574 167.674 6.58574 166.592C6.58574 165.511 7.45556 164.635 8.52871 164.635C9.60186 164.635 10.4717 165.511 10.4717 166.592C10.4717 167.674 9.60186 168.55 8.52871 168.55Z" fill="white" fill-opacity="0.5"/>
<path d="M29.2631 125.088C32.7988 125.088 35.8375 122.908 37.1253 119.818H55.6625V113.188H64.7335V85.4327H55.6625V113.182H37.1253C35.8375 110.086 32.7988 107.912 29.2631 107.912C24.5638 107.912 20.74 111.765 20.74 116.5C20.74 121.235 24.5638 125.088 29.2631 125.088ZM29.2631 114.542C30.3362 114.542 31.206 115.419 31.206 116.5C31.206 117.581 30.3362 118.458 29.2631 118.458C28.1899 118.458 27.3201 117.581 27.3201 116.5C27.3201 115.419 28.1899 114.542 29.2631 114.542Z" fill="white" fill-opacity="0.5"/>
<path d="M8.52871 75.2344C12.0645 75.2344 15.0975 73.0547 16.3909 69.9645H24.4904L39.8477 85.4327L55.6625 85.4327L55.6625 78.8027H64.7335V48.2134H94.9737V39.0736H55.6625V78.797H42.5758L27.2184 63.3288H16.3909C15.1032 60.2329 12.0645 58.0589 8.52871 58.0589C3.82945 58.0589 0.00565367 61.9117 0.00565367 66.6466C0.00565367 71.3816 3.82945 75.2344 8.52871 75.2344ZM8.52871 64.6889C9.59622 64.6889 10.4717 65.5653 10.4717 66.6466C10.4717 67.7279 9.60186 68.6044 8.52871 68.6044C7.45557 68.6044 6.58575 67.7279 6.58575 66.6466C6.58575 65.5653 7.45557 64.6889 8.52871 64.6889Z" fill="white" fill-opacity="0.5"/>
<path d="M129.089 10.8519V39.0736H101.548V48.2134H129.094V39.0736H135.674V10.8519C138.747 9.5543 140.91 6.49254 140.91 2.92996C140.91 -1.80497 137.086 -5.6578 132.387 -5.6578C127.688 -5.6578 123.864 -1.80497 123.864 2.92996C123.864 6.49254 126.027 9.54861 129.094 10.8519H129.089ZM132.381 0.972244C133.455 0.972244 134.324 1.84866 134.324 2.92996C134.324 4.01125 133.455 4.88767 132.381 4.88767C131.308 4.88767 130.438 4.01125 130.438 2.92996C130.438 1.84866 131.308 0.972244 132.381 0.972244Z" fill="white" fill-opacity="0.5"/>
<path d="M79.6107 -0.490339V10.4194L94.968 25.8876V39.0736L101.548 39.0736L101.548 23.1445L86.1908 7.67628V-0.484648C89.2634 -1.7822 91.4266 -4.84397 91.4266 -8.40655C91.4266 -13.1415 87.6028 -16.9943 82.9035 -16.9943C78.2043 -16.9943 74.3805 -13.1415 74.3805 -8.40655C74.3805 -4.84397 76.5437 -1.78789 79.6107 -0.484648V-0.490339ZM82.9035 -10.37C83.9767 -10.37 84.8465 -9.49354 84.8465 -8.41224C84.8465 -7.33095 83.9767 -6.45453 82.9035 -6.45453C81.8304 -6.45453 80.9606 -7.33095 80.9606 -8.41224C80.9606 -9.49354 81.8304 -10.37 82.9035 -10.37Z" fill="white" fill-opacity="0.5"/>
<path d="M135.674 48.2134H163.452V39.0736H170.032V25.8875L185.389 10.4193V-0.490345C188.462 -1.7879 190.619 -4.84967 190.619 -8.41225C190.619 -13.1472 186.796 -17 182.096 -17C177.397 -17 173.573 -13.1472 173.573 -8.41225C173.573 -4.84967 175.737 -1.79359 178.809 -0.490345V7.67058L163.452 23.1388V39.068H135.674V48.2134ZM182.096 -10.37C183.164 -10.37 184.039 -9.49354 184.039 -8.41225C184.039 -7.33095 183.17 -6.45454 182.096 -6.45454C181.023 -6.45454 180.153 -7.33095 180.153 -8.41225C180.153 -9.49354 181.023 -10.37 182.096 -10.37Z" fill="white" fill-opacity="0.5"/>
<path d="M256.471 58.0532C252.936 58.0532 249.902 60.2329 248.609 63.3231H237.782L222.424 78.7913H209.337V39.0736H170.032L170.032 48.2134H200.272V78.8027H209.343V85.4327H225.158L240.515 69.9645H248.615C249.902 73.0604 252.941 75.2344 256.477 75.2344C261.176 75.2344 265 71.3816 265 66.6466C265 61.9117 261.176 58.0589 256.477 58.0589L256.471 58.0532ZM256.471 68.5987C255.404 68.5987 254.528 67.7223 254.528 66.641C254.528 65.5597 255.398 64.6832 256.471 64.6832C257.544 64.6832 258.414 65.5597 258.414 66.641C258.414 67.7223 257.544 68.5987 256.471 68.5987Z" fill="white" fill-opacity="0.5"/>
<path d="M256.471 158.005C252.936 158.005 249.903 160.184 248.609 163.275H240.51L225.152 147.801H209.337V119.812H200.267V147.801H209.337V154.431H222.424L237.782 169.905H248.609C249.897 173 252.936 175.174 256.471 175.174C261.171 175.174 264.994 171.322 264.994 166.587C264.994 161.852 261.171 157.999 256.471 157.999V158.005ZM256.471 168.55C255.404 168.55 254.528 167.674 254.528 166.592C254.528 165.511 255.398 164.635 256.471 164.635C257.544 164.635 258.414 165.511 258.414 166.592C258.414 167.674 257.544 168.55 256.471 168.55Z" fill="white" fill-opacity="0.5"/>
<path d="M245.215 107.912C241.679 107.912 238.646 110.092 237.352 113.182H209.337V85.4327H200.267V113.188H209.337V119.818H237.352C238.64 122.914 241.679 125.088 245.215 125.088C249.914 125.088 253.738 121.235 253.738 116.5C253.738 111.765 249.914 107.912 245.215 107.912ZM245.215 118.458C244.147 118.458 243.272 117.581 243.272 116.5C243.272 115.419 244.141 114.542 245.215 114.542C246.288 114.542 247.158 115.419 247.158 116.5C247.158 117.581 246.288 118.458 245.215 118.458Z" fill="white" fill-opacity="0.5"/>
</svg>
