<svg width="281" height="173" viewBox="0 0 281 173" fill="none" xmlns="http://www.w3.org/2000/svg">
<path d="M70.5606 159.558H-8V168.519H70.5606V159.558Z" fill="white" fill-opacity="0.5"/>
<path d="M281 159.558H202.439V168.519H281V159.558Z" fill="white" fill-opacity="0.5"/>
<path d="M122.177 44.561L94.0981 72.1812L102.827 80.7675L130.906 53.1474L122.177 44.561Z" fill="white" fill-opacity="0.5"/>
<path d="M170.412 92.0058L142.333 119.626L151.062 128.212L179.141 100.592L170.412 92.0058Z" fill="white" fill-opacity="0.5"/>
<path d="M125.493 111.902L110.676 97.3271L115.785 92.3022L109.638 86.2557L99.184 96.5386L126.295 123.207L136.748 112.924L130.607 106.877L125.493 111.902Z" fill="white" fill-opacity="0.5"/>
<path d="M156.696 0V12.9092L231.509 86.5L156.696 160.091V173L244.632 86.5L156.696 0Z" fill="white" fill-opacity="0.5"/>
<path d="M116.304 12.9092V0L28.3677 86.5L116.304 173V160.091L41.4912 86.5L116.304 12.9092Z" fill="white" fill-opacity="0.5"/>
</svg>
