<svg width="428" height="252" viewBox="0 0 428 252" fill="none" xmlns="http://www.w3.org/2000/svg">
<path d="M408.907 82.7702V28.2493C408.907 13.036 395.889 0.664062 379.882 0.664062H74.1449C58.1371 0.664062 45.1191 13.036 45.1191 28.2493V33.8183H20.7913C9.32791 33.8183 0 42.6832 0 53.5776V101.003C0 111.898 9.32791 120.763 20.7913 120.763H45.1191V223.96C45.1191 239.173 58.1371 251.545 74.1449 251.545H379.882C395.889 251.545 408.907 239.173 408.907 223.96V213.958L427.973 197.771V95.2558L408.907 82.7702ZM30.7513 91.5377V63.0433H90.2552V91.5377H30.7513ZM397.222 184.701L378.156 200.888V222.32H75.8704V120.763H100.215C111.679 120.763 121.007 111.898 121.007 101.003V53.5776C121.007 42.6832 111.679 33.8183 100.215 33.8183H75.8704V29.8891H378.156V98.1134L397.222 110.615V184.701ZM259.986 165.234C259.986 188.597 239.98 207.626 215.396 207.626C201.455 207.626 193.17 202.69 188.13 198.972L185.208 196.813L187.703 194.215C191.29 190.481 193.973 186.065 195.715 181.096L197.407 176.209L201.319 179.765C203.181 181.47 206.666 184.636 215.379 184.636C226.62 184.636 235.777 175.933 235.777 165.25C235.777 154.566 226.62 145.864 215.379 145.864C204.138 145.864 194.981 154.566 194.981 165.25L194.929 167.279C193.802 189.701 174.223 207.626 150.391 207.626C126.559 207.626 105.802 188.614 105.802 165.234C105.802 141.854 125.807 122.857 150.391 122.857C160.027 122.857 169.201 125.747 176.94 131.203L179.998 133.362L177.418 136.025C173.83 139.727 171.012 144.289 169.286 149.225L167.663 153.852L163.802 150.637C160.095 147.552 155.328 145.864 150.408 145.864C139.167 145.864 130.01 154.566 130.01 165.25C130.01 175.933 139.167 184.636 150.408 184.636C161.65 184.636 170.362 176.453 170.79 166.013V165.558C170.79 165.461 170.79 165.347 170.79 165.25C170.79 141.886 190.795 122.873 215.379 122.873C239.963 122.873 259.968 141.886 259.968 165.25L259.986 165.234ZM175.915 43.4463H365.651V72.6713H175.915V43.4463Z" fill="white" fill-opacity="0.09"/>
</svg>
