<svg width="49" height="44" viewBox="0 0 49 44" fill="none" xmlns="http://www.w3.org/2000/svg">
<path fill-rule="evenodd" clip-rule="evenodd" d="M4.15254 2.44444C6.44593 2.44444 8.30508 4.26847 8.30508 6.51852V14.6667H16.6102C18.9036 14.6667 20.7627 16.4907 20.7627 18.7407C20.7627 20.9908 18.9036 22.8148 16.6102 22.8148H4.15254C1.85916 22.8148 0 20.9908 0 18.7407V6.51852C0 4.26847 1.85916 2.44444 4.15254 2.44444Z" fill="currentColor"/>
<path d="M12.4576 22C12.4576 14.3498 18.7788 8.14815 26.5763 8.14815C34.3738 8.14815 40.6949 14.3498 40.6949 22C40.6949 29.3766 34.8177 35.4065 27.4068 35.8283V43.9852C39.4063 43.5566 49 33.8775 49 22C49 9.84974 38.9606 0 26.5763 0C14.192 0 4.15254 9.84974 4.15254 22C4.15254 22.2728 4.1576 22.5444 4.16764 22.8148H12.4816C12.4657 22.5452 12.4576 22.2735 12.4576 22Z" fill="currentColor"/>
<path d="M31.5593 39.9259C31.5593 42.176 29.7002 44 27.4068 44C25.1134 44 23.2542 42.176 23.2542 39.9259C23.2542 37.6759 25.1134 35.8519 27.4068 35.8519C29.7002 35.8519 31.5593 37.6759 31.5593 39.9259Z" fill="currentColor"/>
</svg>
