<?xml version="1.0" encoding="utf-8"?>
<!-- Generator: Adobe Illustrator 27.0.0, SVG Export Plug-In . SVG Version: 6.00 Build 0)  -->
<svg version="1.1" id="Capa_1" xmlns="http://www.w3.org/2000/svg" xmlns:xlink="http://www.w3.org/1999/xlink" x="0px" y="0px"
	 viewBox="0 0 100 100" style="enable-background:new 0 0 100 100;" xml:space="preserve">
<style type="text/css">
	.st0{fill:#FFFFFF;}
</style>
<path class="st0" d="M76.09,45.27V24.74c0-0.42-0.04-0.83-0.13-1.22C74.67,10.33,63.52,0,50,0S25.33,10.33,24.04,23.52
	c-0.08,0.39-0.13,0.8-0.13,1.22v20.54c-2.75,0.5-4.85,2.91-4.85,5.8v5.03c0,3.25,2.65,5.9,5.9,5.9h11.2V100h6.57V62.01h14.53V100
	h6.57V62.01h11.2c3.25,0,5.9-2.65,5.9-5.9v-5.03C80.94,48.19,78.84,45.77,76.09,45.27z M74.36,55.44H25.64v-3.69h4.85v-6.57V26.09
	c0-0.23,0-0.45,0.01-0.68c0.08-2.32,0.56-4.53,1.38-6.57C34.77,11.65,41.8,6.57,50,6.57c8.2,0,15.23,5.08,18.12,12.26
	c0.82,2.05,1.31,4.26,1.38,6.57c0.01,0.23,0.01,0.45,0.01,0.68v19.09v6.57h4.85V55.44z"/>
</svg>
