<svg width="60" height="60" viewBox="0 0 60 60" fill="none" xmlns="http://www.w3.org/2000/svg">
<g filter="url(#filter0_d_356_254)">
<path fill-rule="evenodd" clip-rule="evenodd" d="M15.7792 30.3213C20.9273 35.4693 29.2739 35.4693 34.422 30.3213C39.57 25.1732 39.57 16.8266 34.422 11.6785C29.2739 6.53043 20.9273 6.53043 15.7792 11.6785C10.6311 16.8266 10.6311 25.1732 15.7792 30.3213ZM10.6006 35.4998C18.6087 43.5079 31.5924 43.5079 39.6005 35.4998C47.6086 27.4917 47.6086 14.508 39.6005 6.49994C31.5924 -1.50815 18.6087 -1.50815 10.6006 6.49994C2.59255 14.508 2.59255 27.4917 10.6006 35.4998Z" fill="white"/>
<path fill-rule="evenodd" clip-rule="evenodd" d="M47.1957 50.345L31.8327 34.982L39.0827 27.732L54.4457 43.095C56.4477 45.0971 56.4477 48.343 54.4457 50.345C52.4437 52.347 49.1978 52.347 47.1957 50.345Z" fill="white"/>
</g>
<defs>
<filter id="filter0_d_356_254" x="0.594727" y="0.493896" width="59.3525" height="59.3525" filterUnits="userSpaceOnUse" color-interpolation-filters="sRGB">
<feFlood flood-opacity="0" result="BackgroundImageFix"/>
<feColorMatrix in="SourceAlpha" type="matrix" values="0 0 0 0 0 0 0 0 0 0 0 0 0 0 0 0 0 0 127 0" result="hardAlpha"/>
<feOffset dy="4"/>
<feGaussianBlur stdDeviation="2"/>
<feComposite in2="hardAlpha" operator="out"/>
<feColorMatrix type="matrix" values="0 0 0 0 0 0 0 0 0 0 0 0 0 0 0 0 0 0 0.25 0"/>
<feBlend mode="normal" in2="BackgroundImageFix" result="effect1_dropShadow_356_254"/>
<feBlend mode="normal" in="SourceGraphic" in2="effect1_dropShadow_356_254" result="shape"/>
</filter>
</defs>
</svg>
